<?xml version="1.0" standalone="no"?>
<!DOCTYPE svg PUBLIC "-//W3C//DTD SVG 20010904//EN"
 "http://www.w3.org/TR/2001/REC-SVG-20010904/DTD/svg10.dtd">
<svg version="1.0" xmlns="http://www.w3.org/2000/svg"
 width="356.000000pt" height="356.000000pt" viewBox="0 0 356.000000 356.000000"
 preserveAspectRatio="xMidYMid meet">
<metadata>
Created by potrace 1.15, written by Peter Selinger 2001-2017
</metadata>
<g transform="translate(0.000000,356.000000) scale(0.100000,-0.100000)"
fill="#000000" stroke="none">
<path d="M1590 3523 c-195 -20 -417 -87 -602 -181 -347 -175 -613 -442 -783
-785 -140 -282 -194 -533 -182 -852 9 -252 63 -467 172 -691 431 -885 1498
-1247 2375 -804 406 205 731 581 874 1010 137 412 113 894 -64 1277 -295 637
-922 1039 -1611 1031 -79 0 -160 -3 -179 -5z m510 -63 c164 -34 283 -76 435
-151 346 -170 609 -433 780 -778 113 -225 163 -427 172 -687 9 -253 -23 -456
-102 -664 -367 -962 -1466 -1394 -2379 -934 -267 135 -498 341 -666 593 -114
171 -208 404 -252 626 -19 91 -23 144 -23 305 0 243 26 396 102 600 211 565
702 980 1290 1089 155 29 160 29 358 26 138 -2 205 -8 285 -25z"/>
<path d="M1665 3179 c-562 -44 -1045 -421 -1225 -955 -55 -161 -65 -231 -65
-449 0 -171 3 -214 22 -296 65 -281 181 -489 387 -694 140 -139 247 -215 416
-292 433 -197 961 -155 1354 109 326 220 536 539 613 933 26 135 23 367 -6
510 -60 287 -185 518 -391 725 -234 236 -540 378 -875 410 -60 5 -114 9 -120
9 -5 -1 -55 -5 -110 -10z m401 -58 c174 -39 342 -112 491 -212 94 -63 281
-248 348 -344 98 -141 173 -312 220 -505 26 -104 31 -374 11 -501 -20 -118
-68 -272 -120 -382 -104 -219 -302 -437 -521 -575 -120 -75 -301 -145 -465
-179 -119 -25 -392 -24 -510 1 -443 95 -792 362 -981 752 -48 99 -92 226 -116
336 -22 102 -25 409 -5 503 62 286 182 521 366 714 200 209 483 358 776 406
124 21 387 14 506 -14z"/>
<path d="M1722 2967 c-65 -296 -65 -292 -58 -832 l6 -490 -77 -50 -78 -50 -3
-62 -3 -63 81 0 c64 0 80 -3 80 -15 0 -8 7 -15 16 -15 14 0 15 -7 10 -39 -3
-22 -9 -46 -12 -55 -5 -14 5 -16 74 -16 l80 0 -14 53 c-7 28 -14 53 -14 55 0
1 9 2 20 2 11 0 20 7 20 15 0 12 16 15 80 15 l81 0 -3 63 -3 62 -79 50 -78 50
6 470 c4 376 2 489 -9 565 -20 139 -78 430 -85 430 -4 0 -21 -64 -38 -143z
m60 -99 c46 -226 47 -245 41 -863 l-6 -585 -24 0 c-23 0 -23 1 -23 115 0 96
-3 115 -15 115 -12 0 -15 -19 -15 -115 0 -106 -1 -115 -19 -115 -18 0 -19 21
-26 548 -4 301 -5 585 -2 633 6 90 56 374 64 365 3 -3 14 -47 25 -98z m-112
-1338 l0 -80 -65 0 -65 0 0 39 c0 36 4 41 63 80 34 22 63 41 65 41 1 0 2 -36
2 -80z"/>
<path d="M1018 2679 c-3 -9 -10 -38 -13 -64 -8 -52 -24 -64 -58 -43 -12 7 -35
19 -51 26 -28 13 -28 11 12 -32 23 -25 42 -50 42 -55 0 -5 -27 -12 -61 -16
-70 -8 -70 -15 2 -26 28 -5 54 -10 56 -13 3 -3 -15 -24 -41 -47 -25 -23 -44
-44 -42 -46 2 -2 31 9 64 26 33 16 62 27 66 24 3 -4 6 -20 7 -37 1 -17 4 -42
8 -56 7 -21 10 -15 21 38 l13 62 32 -18 c17 -11 45 -28 61 -38 l29 -19 -22 30
c-11 17 -30 39 -42 49 -12 11 -21 22 -21 26 0 4 30 11 68 15 72 8 66 16 -20
29 -27 4 -48 11 -48 15 0 4 20 27 45 51 24 24 43 45 41 48 -2 2 -27 -8 -55
-22 -28 -14 -54 -26 -59 -26 -6 0 -14 30 -18 68 -5 38 -12 60 -16 51z"/>
<path d="M2542 2069 c-6 -34 -14 -64 -17 -67 -3 -3 -31 6 -62 22 l-56 27 42
-50 c23 -27 38 -52 34 -54 -4 -3 -35 -9 -68 -13 -54 -7 -57 -8 -30 -15 17 -5
48 -11 69 -14 l39 -6 -49 -50 c-26 -27 -45 -49 -41 -49 4 0 34 13 67 30 l59
30 5 -30 c20 -103 18 -101 33 -32 l15 63 25 -17 c15 -9 42 -26 62 -38 l36 -21
-42 52 c-24 28 -43 53 -43 56 0 3 30 9 67 13 72 7 67 16 -19 28 -27 4 -48 11
-48 15 0 4 10 18 22 32 12 13 31 35 42 48 l21 23 -52 -26 c-29 -14 -57 -26
-62 -26 -5 0 -12 24 -16 53 -11 80 -20 84 -33 16z"/>
<path d="M1030 1563 l-13 -72 -60 30 c-32 17 -61 29 -63 27 -2 -3 17 -24 41
-48 25 -24 45 -47 45 -51 0 -4 -21 -11 -47 -15 -65 -9 -89 -23 -43 -25 19 -1
47 -4 63 -8 l28 -6 -46 -47 c-25 -27 -43 -48 -40 -48 3 0 28 11 55 25 27 14
54 25 59 25 6 0 13 -17 16 -37 12 -72 21 -83 29 -33 11 73 16 76 73 41 28 -17
54 -31 58 -31 4 0 -11 20 -34 45 -23 25 -39 50 -36 55 3 6 21 10 38 11 18 1
43 4 57 8 21 6 18 9 -24 15 -90 14 -91 16 -41 66 24 25 44 48 45 51 0 4 -26
-6 -57 -22 l-58 -28 -8 42 c-21 106 -22 108 -37 30z"/>
<path d="M1648 1239 c-105 -11 -228 -41 -345 -85 -118 -44 -275 -123 -271
-136 5 -14 8 -13 131 46 142 70 272 112 415 137 275 47 547 0 827 -141 87 -44
115 -55 113 -42 -4 23 -204 121 -325 159 -206 66 -354 82 -545 62z"/>
<path d="M2283 879 c-36 -10 -57 -40 -49 -67 9 -27 44 -43 105 -48 78 -7 101
-13 101 -25 0 -8 -23 -10 -70 -7 -52 3 -77 9 -100 26 l-30 23 0 -40 c0 -38 1
-39 38 -39 20 0 69 -1 109 -3 83 -2 123 16 123 55 0 38 -30 55 -116 66 -103
14 -115 18 -91 32 22 12 96 3 145 -17 32 -14 32 -14 32 15 0 26 -3 28 -32 27
-18 0 -55 2 -83 6 -27 3 -65 2 -82 -4z"/>
<path d="M1103 859 c22 -17 27 -28 27 -64 0 -35 -5 -48 -26 -64 l-27 -21 74
-1 c41 0 82 -2 93 -4 17 -3 16 -2 -3 19 -27 29 -27 44 2 51 58 13 87 -8 56
-41 l-20 -22 33 -3 c18 -2 58 -2 88 1 51 5 53 6 33 18 -19 11 -23 21 -23 65 0
46 3 54 28 69 27 17 26 17 -67 18 l-94 0 21 -23 c12 -13 22 -26 22 -30 0 -4
-22 -7 -50 -7 -56 0 -66 16 -27 43 21 15 16 16 -73 16 l-95 0 28 -20z"/>
<path d="M1562 864 c16 -16 14 -21 -23 -75 -21 -32 -47 -63 -57 -68 -13 -8 1
-10 53 -10 60 0 68 1 53 13 -28 21 -22 26 37 26 55 0 73 -13 35 -25 -41 -13
-17 -20 65 -19 92 1 111 7 74 24 -13 7 -41 35 -61 65 l-37 53 22 15 c21 15 15
16 -78 16 -92 1 -98 0 -83 -15z"/>
<path d="M1868 859 c28 -18 32 -26 32 -64 0 -35 -5 -48 -26 -64 l-27 -21 24
-1 c13 0 54 -1 92 -2 37 -1 67 0 67 2 0 2 -12 15 -27 30 l-28 26 28 3 c33 4
36 29 5 34 -15 2 -23 10 -23 23 0 13 8 21 23 23 12 2 22 10 22 18 0 11 -20 14
-97 14 l-98 0 33 -21z"/>
<path d="M2040 866 c0 -7 9 -16 20 -19 11 -3 20 -13 20 -22 0 -9 -9 -19 -20
-22 -11 -3 -20 -11 -20 -17 0 -6 9 -19 20 -29 11 -9 20 -24 20 -32 0 -12 13
-15 60 -15 l60 0 -41 40 c-23 22 -35 40 -27 40 27 0 51 25 44 47 -12 36 -136
63 -136 29z"/>
<path d="M2690 3054 c-13 -20 -36 -49 -50 -64 l-25 -27 22 -17 c18 -13 23 -14
23 -3 0 8 9 22 20 32 20 18 20 17 20 -33 0 -41 4 -53 20 -62 19 -10 20 -8 20
35 0 37 3 45 18 45 10 0 23 5 30 12 23 23 13 55 -27 87 -21 17 -40 31 -42 31
-2 0 -15 -16 -29 -36z"/>
<path d="M327 1419 c-26 -38 -28 -39 -51 -24 -23 15 -26 15 -46 -5 -12 -12
-19 -29 -16 -38 3 -9 8 -33 11 -53 l7 -36 60 18 c33 11 70 19 83 19 18 0 21 4
17 26 -3 17 -9 23 -19 20 -33 -13 -63 -18 -63 -10 0 4 13 22 30 39 24 24 28
36 22 56 l-7 26 -28 -38z"/>
</g>
</svg>
